<svg version="1.1" id="Layer_1" xmlns="http://www.w3.org/2000/svg" xmlns:xlink="http://www.w3.org/1999/xlink" x="0px" y="0px"
	 width="100%" viewBox="0 0 512 512" enable-background="new 0 0 512 512" xml:space="preserve">
<path fill="#000000" opacity="1.000000" stroke="none" 
	d="
M413.000000,0.999998 
	C446.317627,1.000000 479.635254,1.000000 512.976440,1.000000 
	C512.976440,171.570496 512.976440,342.140991 512.976440,513.000000 
	C408.978729,513.000000 304.957214,513.000000 200.114410,512.767639 
	C199.579239,512.130127 199.823883,511.686615 200.157837,511.325745 
	C203.761139,507.432495 205.405182,502.844421 203.293137,497.882965 
	C201.067017,492.653534 196.452271,490.817993 190.882599,490.974121 
	C184.924149,491.141174 178.960159,491.110565 172.534698,491.095764 
	C156.714127,491.072479 141.357468,491.119659 125.555496,491.096252 
	C123.181419,491.025696 121.252640,491.025696 118.833954,491.025696 
	C118.833954,476.272644 118.833954,462.136871 118.904434,447.537048 
	C118.927345,430.381836 118.879776,413.690643 118.902496,396.535522 
	C118.926353,380.048157 118.879944,364.024689 118.903732,347.537170 
	C118.927406,331.050262 118.880890,315.027405 118.904411,298.540253 
	C118.927002,279.383820 118.879547,260.691742 118.902199,241.535645 
	C118.925743,223.047440 118.879189,205.023209 118.902626,186.535019 
	C118.982132,173.758728 119.086983,161.445251 118.936203,149.134903 
	C118.896988,145.933472 119.648155,143.565125 122.074005,141.317001 
	C127.242638,136.527023 132.101334,131.402634 137.087830,126.416069 
	C170.500275,93.003136 203.936829,59.614170 237.273560,26.125847 
	C239.574173,23.814775 241.837067,22.885998 245.064590,22.929155 
	C255.374237,23.067020 265.688110,22.888723 276.464294,22.903042 
	C295.952576,22.926683 314.976898,22.879787 334.465179,22.903149 
	C353.620667,22.982494 372.312225,23.004911 391.003723,22.982916 
	C393.207672,22.980322 395.449249,22.681398 395.095825,26.463791 
	C395.072479,52.285381 395.119232,77.642921 395.096252,103.464500 
	C395.026520,112.533401 395.026520,121.138268 395.026520,129.676071 
	C381.129639,131.203323 363.407623,139.859161 352.906097,150.689987 
	C341.152252,162.812393 334.037140,177.153137 331.819794,194.173645 
	C330.237396,206.320679 331.648804,217.755249 335.934174,229.421539 
	C339.564850,236.277298 342.591003,243.155807 346.899841,249.105408 
	C350.438538,253.991699 355.501373,257.774231 360.034119,262.360779 
	C367.526611,268.631805 375.631866,273.077087 385.159637,275.439636 
	C394.998138,277.161865 394.989471,277.161896 395.007080,286.551178 
	C395.010498,288.367798 395.110931,290.184265 395.096802,292.451691 
	C395.026978,295.844025 395.026978,298.785431 395.026978,301.540619 
	C389.669708,302.817505 384.835022,303.969849 379.725311,305.086914 
	C379.253204,305.349915 379.056183,305.648193 378.893799,305.943298 
	C378.928467,305.940155 378.913727,305.872131 378.503967,305.925781 
	C376.351471,306.318420 374.588074,306.575500 372.869202,307.009003 
	C354.439850,311.656891 336.044189,316.442230 317.577759,320.937103 
	C311.683533,322.371796 308.854889,329.512360 310.226196,335.145111 
	C311.564331,340.641541 318.064636,344.047974 323.848480,342.592529 
	C334.226715,339.980988 344.616913,337.417236 355.382263,334.766846 
	C368.631378,331.414948 381.500305,328.129700 395.167755,324.640625 
	C395.167755,328.111328 395.167755,331.055908 395.097687,334.464539 
	C395.074097,354.952881 395.120544,374.977234 395.097046,395.464813 
	C395.018402,397.593964 394.780945,399.296356 395.039581,400.919678 
	C396.357544,409.191406 393.076508,415.007568 387.025635,420.771698 
	C369.418976,437.544067 352.458618,454.996094 335.292328,472.228882 
	C329.351868,478.192413 329.557373,485.280945 335.641205,490.098175 
	C340.088043,493.619354 346.936218,492.558533 352.037262,487.462891 
	C370.173126,469.346313 388.285248,451.205963 406.394928,433.085999 
	C409.682861,436.190369 412.819336,439.151794 416.088379,442.417114 
	C426.465942,452.851837 436.710938,462.982635 447.087952,473.417664 
	C452.136139,478.642517 457.324005,483.325928 461.889771,488.552704 
	C466.188446,493.473816 474.089233,492.949066 478.639587,488.789917 
	C482.360901,485.388611 482.037750,476.697968 478.086548,472.654602 
	C472.993744,467.443054 467.761658,462.367615 462.379761,456.987732 
	C451.796600,446.458435 441.423279,436.174957 430.918518,425.586456 
	C427.144165,421.630676 423.281830,418.166046 419.956329,414.246033 
	C418.428131,412.444733 417.205811,409.775177 417.128418,407.456512 
	C416.778839,396.980011 416.888245,386.488190 416.903564,375.537872 
	C416.974792,358.469910 416.974792,341.865967 416.974792,324.584778 
	C422.730377,325.997131 427.884949,327.288940 433.052887,328.524658 
	C444.697510,331.309021 456.348694,334.065613 468.349609,337.011108 
	C475.421417,338.934143 482.144287,340.666382 488.859009,342.429504 
	C493.619324,343.679504 498.787567,341.705261 501.057892,337.726074 
	C504.104462,332.386322 504.078827,327.294800 499.396393,324.242737 
	C495.245270,321.536957 489.913940,320.641815 484.898651,318.608459 
	C476.844177,316.373596 468.997742,314.464905 461.144470,312.584778 
	C450.467346,310.028625 439.784943,307.494293 428.898956,304.611511 
	C424.810059,303.367645 420.927032,302.462891 417.000824,301.548035 
	C417.000824,294.505554 417.160431,287.851959 416.926697,281.212219 
	C416.825195,278.328461 418.266968,277.466919 420.563690,277.017365 
	C440.695435,273.076965 456.956757,262.919647 468.410614,245.905289 
	C475.642426,235.162704 480.916473,223.427048 480.904510,209.537262 
	C482.116119,194.580383 479.389648,180.899231 472.224487,167.828476 
	C463.288452,151.956696 450.723328,140.688065 433.616089,134.085907 
	C427.893005,132.380936 422.552032,130.755432 416.999512,129.065552 
	C416.999512,121.754608 417.021118,114.306664 416.993500,106.858894 
	C416.965271,99.239342 416.888794,91.619957 416.903748,83.536476 
	C416.927399,58.714951 416.880737,34.357449 416.903076,9.624428 
	C415.648071,6.499271 414.324036,3.749634 413.000000,0.999998 
z"/>
<path fill="#000000" opacity="1.000000" stroke="none" 
	d="
M15.999999,513.000000 
	C11.003490,513.000000 6.006980,513.000000 1.007853,513.000000 
	C1.005235,342.455963 1.005235,171.911911 1.005235,1.000000 
	C34.019985,1.000000 67.041336,1.000000 100.873627,1.240848 
	C100.123032,4.248903 97.278229,6.985737 97.211891,9.788334 
	C96.831734,25.849873 97.111366,41.927029 97.096214,58.462875 
	C97.072289,76.284286 97.119225,93.641701 97.095505,111.463120 
	C97.071960,127.284515 97.119072,142.641907 97.095810,158.463348 
	C97.072678,173.951202 97.119919,188.975021 97.096596,204.462906 
	C97.073303,223.284546 97.120575,241.642120 97.097412,260.463684 
	C97.073227,279.619843 97.119484,298.311981 97.095726,317.467712 
	C97.072685,333.954468 97.119659,349.977661 97.096474,366.464752 
	C97.073296,382.285950 97.120277,397.643188 97.097061,413.464447 
	C97.073166,431.619659 97.119453,449.310883 97.095993,467.466034 
	C97.026237,475.518860 97.026237,483.107758 97.026237,491.165985 
	C88.917305,491.165985 81.458984,491.165985 73.536652,491.095520 
	C56.407574,491.016998 39.742504,491.018280 23.077467,490.995483 
	C17.553864,490.987915 13.736521,493.372223 11.759619,498.649902 
	C10.059030,503.189911 11.311831,506.861725 14.605663,510.162567 
	C15.310437,510.868896 15.547476,512.041992 15.999999,513.000000 
z"/>
<path fill="#4891DA" opacity="1.000000" stroke="none" 
	d="
M97.166183,157.999298 
	C97.119072,142.641907 97.071960,127.284515 97.414215,111.369949 
	C99.438004,109.472931 101.171143,108.235657 102.689049,106.774742 
	C108.110291,101.557106 113.458466,96.263557 118.904953,91.462646 
	C118.975609,98.457535 118.975609,104.988510 118.975609,110.970764 
	C148.393494,81.552994 177.654465,52.292141 207.112625,22.834103 
	C200.870819,22.834103 194.434647,22.834103 188.098572,22.520420 
	C189.091949,21.269384 190.018585,20.361372 190.873032,19.389885 
	C196.257614,13.267765 201.626160,7.131550 207.000000,0.999995 
	C222.354233,1.000000 237.708450,1.000000 253.499847,1.357875 
	C252.903687,3.364366 252.138321,5.280464 250.798325,6.622968 
	C201.438202,56.074993 152.034607,105.483643 102.569847,154.830978 
	C101.139046,156.258392 98.983704,156.959534 97.166183,157.999298 
z"/>
<path fill="#4D8EDA" opacity="1.000000" stroke="none" 
	d="
M97.095810,158.463348 
	C98.983704,156.959534 101.139046,156.258392 102.569847,154.830978 
	C152.034607,105.483643 201.438202,56.074993 250.798325,6.622968 
	C252.138321,5.280464 252.903687,3.364366 253.968506,1.357875 
	C267.354218,1.000000 280.708466,1.000000 294.455322,1.343915 
	C293.368225,3.822559 292.114716,6.167452 290.364929,8.051414 
	C285.690613,13.084197 280.803131,17.919016 276.000366,22.832508 
	C265.688110,22.888723 255.374237,23.067020 245.064590,22.929155 
	C241.837067,22.885998 239.574173,23.814775 237.273560,26.125847 
	C203.936829,59.614170 170.500275,93.003136 137.087830,126.416069 
	C132.101334,131.402634 127.242638,136.527023 122.074005,141.317001 
	C119.648155,143.565125 118.896988,145.933472 118.936203,149.134903 
	C119.086983,161.445251 118.982132,173.758728 118.555466,186.569885 
	C116.043739,188.594254 113.869560,190.022812 111.870338,191.664444 
	C106.926598,195.723923 102.062981,199.880981 97.167168,203.998840 
	C97.119919,188.975021 97.072678,173.951202 97.095810,158.463348 
z"/>
<path fill="#7974D5" opacity="1.000000" stroke="none" 
	d="
M74.000671,491.165985 
	C81.458984,491.165985 88.917305,491.165985 97.026237,491.165985 
	C97.026237,483.107758 97.026237,475.518860 97.443253,467.430908 
	C99.711464,465.649933 101.756477,464.574005 103.378136,463.048126 
	C108.613907,458.121552 113.693901,453.029419 118.833946,448.001099 
	C118.833954,462.136871 118.833954,476.272644 118.833954,491.025696 
	C121.252640,491.025696 123.181419,491.025696 125.462036,491.414917 
	C121.693741,496.218506 117.454224,500.529358 113.501968,505.089172 
	C111.410088,507.502594 109.817818,510.349060 108.000000,513.000000 
	C91.312439,513.000000 74.624878,513.000000 57.500072,512.642090 
	C61.336983,507.394318 65.691475,502.571228 69.845001,497.580902 
	C71.463287,495.636597 72.628883,493.315460 74.000671,491.165985 
z"/>
<path fill="#3A9ADC" opacity="1.000000" stroke="none" 
	d="
M97.167084,57.998882 
	C97.111366,41.927029 96.831734,25.849873 97.211891,9.788334 
	C97.278229,6.985737 100.123032,4.248903 101.342285,1.240848 
	C118.687561,1.000000 136.375122,1.000000 154.445679,1.330837 
	C150.024216,6.802854 145.137009,11.870504 140.464325,17.128786 
	C139.010620,18.764668 138.137924,20.916832 136.535751,22.902767 
	C130.482376,22.972893 124.892509,22.972893 118.832649,22.972893 
	C118.832649,29.412476 118.832649,35.205841 118.485329,41.034004 
	C113.203529,45.434280 108.337151,49.880665 103.298660,54.122597 
	C101.465988,55.665531 99.222908,56.721001 97.167084,57.998882 
z"/>
<path fill="#5C85D8" opacity="1.000000" stroke="none" 
	d="
M412.531342,0.999998 
	C414.324036,3.749634 415.648071,6.499271 416.570984,9.707104 
	C411.441803,14.281540 406.820953,18.531715 401.932648,22.447992 
	C399.981110,24.011448 397.439117,24.837837 395.165894,25.999744 
	C395.449249,22.681398 393.207672,22.980322 391.003723,22.982916 
	C372.312225,23.004911 353.620667,22.982494 334.499756,22.556019 
	C338.378357,17.261320 342.777313,12.460073 346.948303,7.468326 
	C348.564453,5.534138 349.664734,3.168892 351.000000,1.000001 
	C371.354218,1.000000 391.708466,1.000000 412.531342,0.999998 
z"/>
<path fill="#558AD9" opacity="1.000000" stroke="none" 
	d="
M350.531342,1.000001 
	C349.664734,3.168892 348.564453,5.534138 346.948303,7.468326 
	C342.777313,12.460073 338.378357,17.261320 334.035828,22.485764 
	C314.976898,22.879787 295.952576,22.926683 276.464294,22.903046 
	C280.803131,17.919016 285.690613,13.084197 290.364929,8.051414 
	C292.114716,6.167452 293.368225,3.822559 294.924011,1.343915 
	C313.354218,1.000000 331.708466,1.000000 350.531342,1.000001 
z"/>
<path fill="#4096DB" opacity="1.000000" stroke="none" 
	d="
M136.999252,22.832645 
	C138.137924,20.916832 139.010620,18.764668 140.464325,17.128786 
	C145.137009,11.870504 150.024216,6.802854 154.914337,1.330837 
	C172.020889,1.000000 189.041794,1.000000 206.531342,0.999995 
	C201.626160,7.131550 196.257614,13.267765 190.873032,19.389885 
	C190.018585,20.361372 189.091949,21.269384 187.634613,22.590214 
	C170.380127,22.926676 153.689682,22.879662 136.999252,22.832645 
z"/>
<path fill="#7079D6" opacity="1.000000" stroke="none" 
	d="
M73.536652,491.095520 
	C72.628883,493.315460 71.463287,495.636597 69.845001,497.580902 
	C65.691475,502.571228 61.336983,507.394318 57.031414,512.642090 
	C43.645771,513.000000 30.291544,513.000000 16.468657,513.000000 
	C15.547476,512.041992 15.310437,510.868896 14.605663,510.162567 
	C11.311831,506.861725 10.059030,503.189911 11.759619,498.649902 
	C13.736521,493.372223 17.553864,490.987915 23.077467,490.995483 
	C39.742504,491.018280 56.407574,491.016998 73.536652,491.095520 
z"/>
<path fill="#7F70D4" opacity="1.000000" stroke="none" 
	d="
M108.468658,513.000000 
	C109.817818,510.349060 111.410088,507.502594 113.501968,505.089172 
	C117.454224,500.529358 121.693741,496.218506 125.907333,491.485504 
	C141.357468,491.119659 156.714127,491.072479 172.441589,491.414429 
	C169.379532,495.530884 165.896393,499.213470 162.529022,502.999054 
	C159.617706,506.271942 156.837921,509.661835 154.000000,513.000000 
	C138.979111,513.000000 123.958214,513.000000 108.468658,513.000000 
z"/>
<path fill="#836ED4" opacity="1.000000" stroke="none" 
	d="
M154.468658,513.000000 
	C156.837921,509.661835 159.617706,506.271942 162.529022,502.999054 
	C165.896393,499.213470 169.379532,495.530884 172.905487,491.484894 
	C178.960159,491.110565 184.924149,491.141174 190.882599,490.974121 
	C196.452271,490.817993 201.067017,492.653534 203.293137,497.882965 
	C205.405182,502.844421 203.761139,507.432495 200.157837,511.325745 
	C199.823883,511.686615 199.579239,512.130127 199.646561,512.767639 
	C184.979111,513.000000 169.958206,513.000000 154.468658,513.000000 
z"/>
<path fill="#7079D6" opacity="1.000000" stroke="none" 
	d="
M335.884491,229.042496 
	C331.648804,217.755249 330.237396,206.320679 331.819794,194.173645 
	C334.037140,177.153137 341.152252,162.812393 352.906097,150.689987 
	C363.407623,139.859161 381.129639,131.203323 395.026520,129.676071 
	C395.026520,121.138268 395.026520,112.533401 395.414948,103.371101 
	C399.104034,99.807327 402.382843,96.776558 405.711121,93.801132 
	C409.394958,90.507851 413.124054,87.265198 416.833435,84.000496 
	C416.888794,91.619957 416.965271,99.239342 416.993500,106.858894 
	C417.021118,114.306664 416.999512,121.754608 416.999512,129.065552 
	C422.552032,130.755432 427.893005,132.380936 433.523041,134.404617 
	C431.553375,137.356293 429.261078,139.881088 427.044434,142.470612 
	C424.317108,145.656784 421.652832,148.896927 418.528015,152.066101 
	C410.781525,152.014389 403.288940,150.980225 396.191772,152.216385 
	C380.445068,154.959106 368.710327,163.821945 360.511688,177.797318 
	C353.808807,189.223038 353.508057,201.427963 353.783142,214.049362 
	C350.605988,216.614410 347.794617,219.124298 344.921936,221.561890 
	C341.940369,224.091873 338.899445,226.551880 335.884491,229.042496 
z"/>
<path fill="#9762D2" opacity="1.000000" stroke="none" 
	d="
M415.955872,442.113220 
	C412.819336,439.151794 409.682861,436.190369 406.394928,433.085999 
	C388.285248,451.205963 370.173126,469.346313 352.037262,487.462891 
	C346.936218,492.558533 340.088043,493.619354 335.641205,490.098175 
	C329.557373,485.280945 329.351868,478.192413 335.292328,472.228882 
	C352.458618,454.996094 369.418976,437.544067 387.025635,420.771698 
	C393.076508,415.007568 396.357544,409.191406 395.039581,400.919678 
	C394.780945,399.296356 395.018402,397.593964 395.415680,395.371185 
	C399.104523,391.807892 402.382843,388.776917 405.710876,385.801575 
	C409.394287,382.508514 413.123199,379.266266 416.832306,376.001892 
	C416.888245,386.488190 416.778839,396.980011 417.128418,407.456512 
	C417.205811,409.775177 418.428131,412.444733 419.956329,414.246033 
	C423.281830,418.166046 427.144165,421.630676 430.738281,425.874329 
	C425.778259,431.682556 420.867065,436.897888 415.955872,442.113220 
z"/>
<path fill="#876BD4" opacity="1.000000" stroke="none" 
	d="
M380.000366,305.122192 
	C384.835022,303.969849 389.669708,302.817505 395.026978,301.540619 
	C395.026978,298.785431 395.026978,295.844025 395.420288,292.357544 
	C397.846436,290.402069 400.146088,289.259613 401.872070,287.540985 
	C426.787689,262.731598 451.616516,237.835022 476.512482,213.005844 
	C477.735474,211.786133 479.383728,210.992844 480.833923,210.000977 
	C480.916473,223.427048 475.642426,235.162704 468.410614,245.905289 
	C456.956757,262.919647 440.695435,273.076965 420.563690,277.017365 
	C418.266968,277.466919 416.825195,278.328461 416.926697,281.212219 
	C417.160431,287.851959 417.000824,294.505554 417.000824,301.548035 
	C420.927032,302.462891 424.810059,303.367645 428.611450,304.791992 
	C420.271118,313.456146 412.151337,321.750153 403.660156,329.644684 
	C401.417786,331.729523 398.029724,332.582092 395.167755,334.000519 
	C395.167755,331.055908 395.167755,328.111328 395.167755,324.640625 
	C381.500305,328.129700 368.631378,331.414948 355.392792,334.400879 
	C356.100525,332.149811 356.832001,329.869934 358.316895,328.304779 
	C363.880585,322.440582 369.748169,316.865692 375.368378,311.053314 
	C376.802460,309.570190 377.745209,307.612030 378.913727,305.872131 
	C378.913727,305.872131 378.928467,305.940155 379.097412,305.824524 
	C379.530365,305.537506 379.775024,305.341949 380.000366,305.122192 
z"/>
<path fill="#8E67D3" opacity="1.000000" stroke="none" 
	d="
M395.097687,334.464539 
	C398.029724,332.582092 401.417786,331.729523 403.660156,329.644684 
	C412.151337,321.750153 420.271118,313.456146 428.817322,305.131104 
	C439.784943,307.494293 450.467346,310.028625 461.144470,312.584778 
	C468.997742,314.464905 476.844177,316.373596 484.611328,318.789246 
	C479.018372,325.150452 473.507812,330.992004 467.997253,336.833557 
	C456.348694,334.065613 444.697510,331.309021 433.052887,328.524658 
	C427.884949,327.288940 422.730377,325.997131 416.974792,324.584778 
	C416.974792,341.865967 416.974792,358.469910 416.903564,375.537872 
	C413.123199,379.266266 409.394287,382.508514 405.710876,385.801575 
	C402.382843,388.776917 399.104523,391.807892 395.485657,394.907959 
	C395.120544,374.977234 395.074097,354.952881 395.097687,334.464539 
z"/>
<path fill="#836ED4" opacity="1.000000" stroke="none" 
	d="
M480.904510,209.537262 
	C479.383728,210.992844 477.735474,211.786133 476.512482,213.005844 
	C451.616516,237.835022 426.787689,262.731598 401.872070,287.540985 
	C400.146088,289.259613 397.846436,290.402069 395.490082,291.906647 
	C395.110931,290.184265 395.010498,288.367798 395.007080,286.551178 
	C394.989471,277.161896 394.998138,277.161865 385.395233,275.198364 
	C389.814941,270.377319 394.349335,266.264099 398.520081,261.810333 
	C399.844788,260.395630 400.200989,258.073975 401.406250,256.097229 
	C407.292572,255.682602 412.953186,256.103302 418.222595,254.862640 
	C442.551758,249.134415 459.018066,228.324371 458.854401,203.875488 
	C458.812500,197.617859 456.969360,191.372284 456.187744,184.877731 
	C461.739899,179.128906 467.058075,173.623505 472.376282,168.118118 
	C479.389648,180.899231 482.116119,194.580383 480.904510,209.537262 
z"/>
<path fill="#667FD7" opacity="1.000000" stroke="none" 
	d="
M416.903748,83.536469 
	C413.124054,87.265198 409.394958,90.507851 405.711121,93.801132 
	C402.382843,96.776558 399.104034,99.807327 395.484680,102.907066 
	C395.119232,77.642921 395.072479,52.285381 395.095825,26.463791 
	C397.439117,24.837837 399.981110,24.011448 401.932648,22.447992 
	C406.820953,18.531715 411.441803,14.281540 416.502014,10.082624 
	C416.880737,34.357449 416.927399,58.714951 416.903748,83.536469 
z"/>
<path fill="#836ED4" opacity="1.000000" stroke="none" 
	d="
M378.503967,305.925781 
	C377.745209,307.612030 376.802460,309.570190 375.368378,311.053314 
	C369.748169,316.865692 363.880585,322.440582 358.316895,328.304779 
	C356.832001,329.869934 356.100525,332.149811 355.012634,334.467529 
	C344.616913,337.417236 334.226715,339.980988 323.848480,342.592529 
	C318.064636,344.047974 311.564331,340.641541 310.226196,335.145111 
	C308.854889,329.512360 311.683533,322.371796 317.577759,320.937103 
	C336.044189,316.442230 354.439850,311.656891 372.869202,307.009003 
	C374.588074,306.575500 376.351471,306.318420 378.503967,305.925781 
z"/>
<path fill="#5C85D8" opacity="1.000000" stroke="none" 
	d="
M97.165741,317.004120 
	C97.119484,298.311981 97.073227,279.619843 97.429337,260.380981 
	C102.903313,255.367905 107.947060,250.869308 113.061394,246.452484 
	C114.897423,244.866837 116.903580,243.478195 118.832100,241.999664 
	C118.879547,260.691742 118.927002,279.383820 118.572388,298.622284 
	C115.805595,300.921509 113.317955,302.532745 111.101501,304.456421 
	C106.381607,308.552979 101.802528,312.811798 97.165741,317.004120 
z"/>
<path fill="#558AD9" opacity="1.000000" stroke="none" 
	d="
M118.902199,241.535660 
	C116.903580,243.478195 114.897423,244.866837 113.061394,246.452484 
	C107.947060,250.869308 102.903313,255.367905 97.499779,259.916962 
	C97.120575,241.642120 97.073303,223.284546 97.096596,204.462906 
	C102.062981,199.880981 106.926598,195.723923 111.870338,191.664444 
	C113.869560,190.022812 116.043739,188.594254 118.485474,187.033875 
	C118.879189,205.023209 118.925743,223.047440 118.902199,241.535660 
z"/>
<path fill="#7079D6" opacity="1.000000" stroke="none" 
	d="
M118.904419,447.537048 
	C113.693901,453.029419 108.613907,458.121552 103.378136,463.048126 
	C101.756477,464.574005 99.711464,465.649933 97.513008,466.966980 
	C97.119453,449.310883 97.073166,431.619659 97.444214,413.429565 
	C102.606583,408.755035 107.242790,404.444946 112.151207,400.471100 
	C114.062416,398.923828 116.587029,398.134216 118.832214,396.999512 
	C118.879776,413.690643 118.927345,430.381836 118.904419,447.537048 
z"/>
<path fill="#7974D5" opacity="1.000000" stroke="none" 
	d="
M472.224487,167.828476 
	C467.058075,173.623505 461.739899,179.128906 455.863647,184.698456 
	C451.137054,178.298523 447.782593,171.065735 442.590973,165.567734 
	C436.306915,158.912735 427.919525,154.712814 418.961304,152.113754 
	C421.652832,148.896927 424.317108,145.656784 427.044434,142.470612 
	C429.261078,139.881088 431.553375,137.356293 433.905151,134.484100 
	C450.723328,140.688065 463.288452,151.956696 472.224487,167.828476 
z"/>
<path fill="#667FD7" opacity="1.000000" stroke="none" 
	d="
M97.095718,317.467712 
	C101.802528,312.811798 106.381607,308.552979 111.101501,304.456421 
	C113.317955,302.532745 115.805595,300.921509 118.502342,299.086609 
	C118.880890,315.027405 118.927406,331.050262 118.571739,347.619751 
	C115.805008,349.919342 113.317635,351.530701 111.101273,353.454346 
	C106.381790,357.550537 101.803055,361.808899 97.166626,366.000824 
	C97.119659,349.977661 97.072685,333.954468 97.095718,317.467712 
z"/>
<path fill="#697DD7" opacity="1.000000" stroke="none" 
	d="
M97.096466,366.464752 
	C101.803055,361.808899 106.381790,357.550537 111.101273,353.454346 
	C113.317635,351.530701 115.805008,349.919342 118.501541,348.083862 
	C118.879944,364.024689 118.926353,380.048157 118.902496,396.535553 
	C116.587029,398.134216 114.062416,398.923828 112.151207,400.471100 
	C107.242790,404.444946 102.606583,408.755035 97.514404,412.965576 
	C97.120277,397.643188 97.073296,382.285950 97.096466,366.464752 
z"/>
<path fill="#A05CD1" opacity="1.000000" stroke="none" 
	d="
M416.088409,442.417114 
	C420.867065,436.897888 425.778259,431.682556 430.869720,426.179352 
	C441.423279,436.174957 451.796600,446.458435 462.116913,457.282745 
	C457.027893,462.920227 451.991913,468.016846 446.955933,473.113464 
	C436.710938,462.982635 426.465942,452.851837 416.088409,442.417114 
z"/>
<path fill="#7974D5" opacity="1.000000" stroke="none" 
	d="
M335.934174,229.421539 
	C338.899445,226.551880 341.940369,224.091873 344.921936,221.561890 
	C347.794617,219.124298 350.605988,216.614410 354.109680,214.250854 
	C357.224823,228.239319 365.363495,238.391541 375.869995,247.173950 
	C371.506683,253.499542 366.827057,258.997253 359.888672,262.045990 
	C355.501373,257.774231 350.438538,253.991699 346.899841,249.105408 
	C342.591003,243.155807 339.564850,236.277298 335.934174,229.421539 
z"/>
<path fill="#A758D0" opacity="1.000000" stroke="none" 
	d="
M447.087952,473.417664 
	C451.991913,468.016846 457.027893,462.920227 462.326721,457.528564 
	C467.761658,462.367615 472.993744,467.443054 478.086548,472.654602 
	C482.037750,476.697968 482.360901,485.388611 478.639587,488.789917 
	C474.089233,492.949066 466.188446,493.473816 461.889771,488.552704 
	C457.324005,483.325928 452.136139,478.642517 447.087952,473.417664 
z"/>
<path fill="#7F70D4" opacity="1.000000" stroke="none" 
	d="
M360.034119,262.360779 
	C366.827057,258.997253 371.506683,253.499542 376.190002,247.324417 
	C383.999512,252.316833 392.078308,255.382858 401.000366,256.167358 
	C400.200989,258.073975 399.844788,260.395630 398.520081,261.810333 
	C394.349335,266.264099 389.814941,270.377319 385.185730,274.863678 
	C375.631866,273.077087 367.526611,268.631805 360.034119,262.360779 
z"/>
<path fill="#9762D2" opacity="1.000000" stroke="none" 
	d="
M468.349640,337.011108 
	C473.507812,330.992004 479.018372,325.150452 484.816284,319.128174 
	C489.913940,320.641815 495.245270,321.536957 499.396393,324.242737 
	C504.078827,327.294800 504.104462,332.386322 501.057892,337.726074 
	C498.787567,341.705261 493.619324,343.679504 488.859009,342.429504 
	C482.144287,340.666382 475.421417,338.934143 468.349640,337.011108 
z"/>
<path fill="#836ED4" opacity="1.000000" stroke="none" 
	d="
M379.725311,305.086945 
	C379.775024,305.341949 379.530365,305.537506 379.062775,305.827698 
	C379.056183,305.648193 379.253204,305.349915 379.725311,305.086945 
z"/>
<path fill="#4096DB" opacity="1.000000" stroke="none" 
	d="
M97.096222,58.462875 
	C99.222908,56.721001 101.465988,55.665531 103.298660,54.122597 
	C108.337151,49.880665 113.203529,45.434280 118.556160,41.497993 
	C118.927643,58.284370 118.880966,74.641556 118.834290,90.998734 
	C113.458466,96.263557 108.110291,101.557106 102.689049,106.774742 
	C101.171143,108.235657 99.438004,109.472931 97.484879,110.905945 
	C97.119225,93.641701 97.072289,76.284286 97.096222,58.462875 
z"/>
<path fill="#000000" opacity="1.000000" stroke="none" 
	d="
M118.904953,91.462646 
	C118.880966,74.641556 118.927643,58.284370 118.903481,41.463196 
	C118.832649,35.205841 118.832649,29.412476 118.832649,22.972893 
	C124.892509,22.972893 130.482376,22.972893 136.535751,22.902769 
	C153.689682,22.879662 170.380127,22.926676 187.534515,22.903896 
	C194.434647,22.834103 200.870819,22.834103 207.112625,22.834103 
	C177.654465,52.292141 148.393494,81.552994 118.975609,110.970764 
	C118.975609,104.988510 118.975609,98.457535 118.904953,91.462646 
z"/>
<path fill="#000000" opacity="1.000000" stroke="none" 
	d="
M401.406250,256.097229 
	C392.078308,255.382858 383.999512,252.316833 376.365845,247.030151 
	C365.363495,238.391541 357.224823,228.239319 354.448547,214.163925 
	C353.508057,201.427963 353.808807,189.223038 360.511688,177.797318 
	C368.710327,163.821945 380.445068,154.959106 396.191772,152.216385 
	C403.288940,150.980225 410.781525,152.014389 418.528015,152.066101 
	C427.919525,154.712814 436.306915,158.912735 442.590973,165.567734 
	C447.782593,171.065735 451.137054,178.298523 455.629669,184.941895 
	C456.969360,191.372284 458.812500,197.617859 458.854401,203.875488 
	C459.018066,228.324371 442.551758,249.134415 418.222595,254.862640 
	C412.953186,256.103302 407.292572,255.682602 401.406250,256.097229 
z"/>
</svg>